<svg width="165" height="24" viewBox="0 0 165 24" fill="none" xmlns="http://www.w3.org/2000/svg">
<path fill-rule="evenodd" clip-rule="evenodd" d="M33.7801 13.84H37.4001L38.3751 16.7H39.4051L36.2801 7.42495H34.9151L31.8801 16.7H32.8801L33.7801 13.84ZM37.1351 13H34.0451L35.5701 8.13499L37.1351 13Z" fill="black"/>
<path d="M47.7351 7.42495V16.7H46.8451L46.7801 15.545C46.0808 16.3955 45.0311 16.8799 43.9301 16.86C41.9001 16.86 41.0251 15.455 41.0251 13.72V7.42495H42.0251V13.76C42.0251 15.03 42.5701 16.05 44.1351 16.05C45.2131 16.0616 46.2125 15.4873 46.7451 14.55V7.42495H47.7351Z" fill="black"/>
<path d="M56.3402 8.24495H53.5702V16.7H52.5702V8.24495H49.8102V7.42495H56.3102L56.3402 8.24495Z" fill="black"/>
<path fill-rule="evenodd" clip-rule="evenodd" d="M64.9451 13.1101V11.0701C64.9451 8.92011 63.8201 7.26511 61.3401 7.26511C58.8601 7.26511 57.7351 8.88011 57.7351 11.0701V13.1101C57.7351 15.1901 58.8501 16.8601 61.3401 16.8601C63.8301 16.8601 64.9451 15.1901 64.9451 13.1101ZM58.73 13.1502V11.0702V11.0552C58.73 9.32017 59.5 8.07017 61.34 8.07017C63.18 8.07017 63.95 9.36017 63.95 11.0702V13.1502C63.95 14.7802 63.185 16.0652 61.34 16.0652C59.495 16.0652 58.73 14.7802 58.73 13.1502Z" fill="black"/>
<path fill-rule="evenodd" clip-rule="evenodd" d="M73.9152 12.7499V11.135C73.9152 8.90995 72.6602 7.42495 70.1652 7.42495H67.5302V16.7H69.8352C72.4852 16.7 73.9152 15.175 73.9152 12.7499ZM70.1051 8.23002C71.9701 8.23002 72.9151 9.33002 72.9151 11.11V12.775C72.9151 14.805 71.8551 15.89 69.8251 15.89H68.5151V8.23002H70.1051Z" fill="black"/>
<path d="M77.455 8.22995V11.5H81.195V12.32H77.455V15.87H81.5V16.68H76.46V7.42495H81.5V8.22995H77.455Z" fill="black"/>
<path d="M83.2751 14.1451H84.2301C84.2951 15.1451 84.9051 16.0401 86.6951 16.0401C88.4851 16.0401 88.9351 15.1501 88.9351 14.4601V14.1551C88.9351 13.2151 88.3801 12.8701 86.9851 12.4201L85.6501 12.0001C84.2151 11.5001 83.6501 10.9301 83.6501 9.8051V9.5001C83.6501 8.5001 84.5001 7.2751 86.7501 7.2751C88.8551 7.2751 89.8801 8.4151 89.9451 9.8851H89.0001C88.9351 8.9851 88.4051 8.0851 86.7601 8.0851C85.1151 8.0851 84.6651 8.8901 84.6651 9.5001V9.7651C84.6651 10.4551 85.0751 10.8551 86.3501 11.2651L87.6901 11.6901C89.1901 12.1651 89.9551 12.7851 89.9551 14.1001V14.4301C89.9551 15.6751 89.0401 16.8701 86.7201 16.8701C84.5001 16.8601 83.3801 15.7601 83.2751 14.1451Z" fill="black"/>
<path d="M99.1702 16V16.685C98.9997 16.764 98.813 16.8016 98.6252 16.795C98.0152 16.795 97.6602 16.58 97.2102 15.93L94.7102 12.2499L93.4002 13.89V16.7H92.4452V7.42495H93.4002V12.5399L97.4652 7.42495H98.5002L95.2652 11.53L98.0352 15.53C98.3002 15.9 98.5002 16.03 98.8702 16.03C98.9708 16.0275 99.0711 16.0175 99.1702 16Z" fill="black"/>
<path fill-rule="evenodd" clip-rule="evenodd" d="M101.63 8.73988V8.40488C101.611 8.13654 101.485 7.88719 101.28 7.71313C101.074 7.53907 100.808 7.45499 100.54 7.47988C99.9824 7.43645 99.4929 7.84807 99.4401 8.40488V8.73988C99.4512 9.01451 99.5748 9.27246 99.782 9.45312C99.9891 9.63378 100.261 9.72121 100.535 9.69488C100.809 9.72121 101.081 9.63378 101.288 9.45312C101.495 9.27246 101.619 9.01451 101.63 8.73988ZM101.172 7.81105C101.348 7.95957 101.456 8.17437 101.47 8.40494V8.73994C101.469 8.97746 101.366 9.20313 101.187 9.35921C101.008 9.51528 100.77 9.58661 100.535 9.55494C100.302 9.57863 100.069 9.50432 99.8927 9.34977C99.7163 9.19521 99.6121 8.97433 99.605 8.73994V8.40494C99.6474 7.93256 100.062 7.5824 100.535 7.61994C100.764 7.59341 100.995 7.66254 101.172 7.81105ZM101.06 9.10996H101.085V9.22996C101.054 9.23603 101.021 9.23603 100.99 9.22996C100.905 9.234 100.827 9.18385 100.795 9.10496L100.58 8.69996H100.35V9.19996H100.18V7.91496H100.55C100.82 7.91496 100.99 8.05496 100.99 8.24996V8.34496C100.99 8.49094 100.891 8.61846 100.75 8.65496L100.945 9.01996C100.955 9.07475 101.004 9.1134 101.06 9.10996ZM100.82 8.28979V8.36479C100.82 8.49979 100.7 8.57479 100.525 8.58479H100.35V8.08479H100.545C100.7 8.08479 100.82 8.14979 100.82 8.28979Z" fill="black"/>
<path d="M105.725 7.42495H107.46L109.795 15.32L111.965 7.42495H113.675L110.92 16.7H108.64L105.725 7.42495Z" fill="black"/>
<path fill-rule="evenodd" clip-rule="evenodd" d="M116.05 14.26H119.255L120.04 16.7H121.765L118.765 7.42495H116.5L113.665 16.7H115.345L116.05 14.26ZM118.86 12.9249H116.42L117.625 8.58991L118.86 12.9249Z" fill="black"/>
<path d="M130.115 7.42495V16.7H128.645L128.54 15.84C127.884 16.5139 126.98 16.8883 126.04 16.875C124.04 16.875 123.005 15.505 123.005 13.705V7.42495H124.69V13.77C124.69 14.83 125.15 15.585 126.41 15.585C127.226 15.5973 127.995 15.2062 128.465 14.54V7.42495H130.115Z" fill="black"/>
<path d="M138.07 15.35V16.7H132.635V7.42495H134.305V15.35H138.07Z" fill="black"/>
<path d="M144.695 8.70995H142.1V16.71H140.43V8.70995H137.82V7.42495H144.695V8.70995Z" fill="black"/>
<path d="M24.1415 22.9954L3.41469 22.9954C3.24641 22.9954 3.07977 22.9623 2.9243 22.8978C2.76883 22.8334 2.62756 22.7391 2.50857 22.6201C2.38958 22.5011 2.2952 22.3598 2.23081 22.2043C2.16642 22.0488 2.13328 21.8822 2.1333 21.7139L2.1333 4.9927L24.1415 4.9927L24.1415 22.9954Z" fill="#705A01"/>
<path d="M4.13 1H20.8413C21.1811 1 21.5071 1.135 21.7474 1.37531C21.9877 1.61562 22.1227 1.94155 22.1227 2.2814V18.9889H4.13V1Z" fill="#DBAE03"/>
<path d="M0.139999 21.252L4.13 18.989V1L0.139999 3.432V21.252Z" fill="#EACD5D"/>
<path d="M8.6175 5.0171H11.1443L13.1687 12.8771L15.012 5.0171H17.4832L14.7605 14.7901H11.5076L8.6175 5.0171Z" fill="white"/>
</svg>
