<svg width="165" height="24" viewBox="0 0 165 24" fill="none" xmlns="http://www.w3.org/2000/svg">
<path fill-rule="evenodd" clip-rule="evenodd" d="M33.78 13.5748H37.4L38.375 16.4348H39.405L36.28 7.15984H34.915L31.88 16.4348H32.88L33.78 13.5748ZM37.135 12.7349H34.045L35.57 7.86988L37.135 12.7349Z" fill="#F5F5F5"/>
<path d="M47.735 7.15984V16.4348H46.845L46.78 15.2798C46.0807 16.1304 45.0309 16.6148 43.93 16.5948C41.9 16.5948 41.025 15.1898 41.025 13.4548V7.15984H42.025V13.4948C42.025 14.7648 42.57 15.7848 44.135 15.7848C45.213 15.7965 46.2124 15.2222 46.745 14.2848V7.15984H47.735Z" fill="#F5F5F5"/>
<path d="M56.3399 7.97984H53.5699V16.4348H52.5699V7.97984H49.8099V7.15984H56.3099L56.3399 7.97984Z" fill="#F5F5F5"/>
<path fill-rule="evenodd" clip-rule="evenodd" d="M64.945 12.845V10.805C64.945 8.655 63.82 7 61.34 7C58.86 7 57.735 8.615 57.735 10.805V12.845C57.735 14.925 58.85 16.595 61.34 16.595C63.83 16.595 64.945 14.925 64.945 12.845ZM58.73 12.8851V10.8051V10.7901C58.73 9.05507 59.5 7.80507 61.34 7.80507C63.18 7.80507 63.95 9.09507 63.95 10.8051V12.8851C63.95 14.5151 63.185 15.8001 61.34 15.8001C59.495 15.8001 58.73 14.5151 58.73 12.8851Z" fill="#F5F5F5"/>
<path fill-rule="evenodd" clip-rule="evenodd" d="M73.915 12.4848V10.8698C73.915 8.64484 72.66 7.15984 70.165 7.15984H67.53V16.4348H69.835C72.485 16.4348 73.915 14.9098 73.915 12.4848ZM70.105 7.96491C71.97 7.96491 72.915 9.06491 72.915 10.8449V12.5099C72.915 14.5399 71.855 15.6249 69.825 15.6249H68.515V7.96491H70.105Z" fill="#F5F5F5"/>
<path d="M77.455 7.96484V11.2348H81.195V12.0548H77.455V15.6048H81.5V16.4148H76.46V7.15984H81.5V7.96484H77.455Z" fill="#F5F5F5"/>
<path d="M83.275 13.88H84.23C84.295 14.88 84.905 15.775 86.695 15.775C88.485 15.775 88.935 14.885 88.935 14.195V13.89C88.935 12.95 88.38 12.605 86.985 12.155L85.65 11.735C84.215 11.235 83.65 10.665 83.65 9.53999V9.23499C83.65 8.23499 84.5 7.00999 86.75 7.00999C88.855 7.00999 89.88 8.14999 89.945 9.61999H89C88.935 8.71999 88.405 7.81999 86.76 7.81999C85.115 7.81999 84.665 8.62499 84.665 9.23499V9.49999C84.665 10.19 85.075 10.59 86.35 11L87.69 11.425C89.19 11.9 89.955 12.52 89.955 13.835V14.165C89.955 15.41 89.04 16.605 86.72 16.605C84.5 16.595 83.38 15.495 83.275 13.88Z" fill="#F5F5F5"/>
<path d="M99.17 15.7348V16.4198C98.9996 16.4989 98.8128 16.5365 98.625 16.5298C98.015 16.5298 97.66 16.3148 97.21 15.6648L94.71 11.9848L93.4 13.6248V16.4348H92.445V7.15984H93.4V12.2748L97.465 7.15984H98.5L95.265 11.2648L98.035 15.2648C98.3 15.6348 98.5 15.7648 98.87 15.7648C98.9707 15.7624 99.0709 15.7524 99.17 15.7348Z" fill="#F5F5F5"/>
<path fill-rule="evenodd" clip-rule="evenodd" d="M101.63 8.47477V8.13977C101.611 7.87144 101.485 7.62209 101.279 7.44803C101.074 7.27397 100.808 7.18989 100.54 7.21477C99.9823 7.17134 99.4928 7.58296 99.4399 8.13977V8.47477C99.4511 8.7494 99.5747 9.00736 99.7818 9.18802C99.989 9.36867 100.261 9.45611 100.535 9.42977C100.809 9.45611 101.081 9.36867 101.288 9.18802C101.495 9.00736 101.619 8.7494 101.63 8.47477ZM101.171 7.54595C101.348 7.69446 101.456 7.90926 101.47 8.13983V8.47483C101.469 8.71236 101.366 8.93803 101.187 9.0941C101.008 9.25018 100.77 9.3215 100.535 9.28983C100.302 9.31353 100.069 9.23921 99.8926 9.08466C99.7162 8.93011 99.612 8.70922 99.6049 8.47483V8.13983C99.6473 7.66746 100.062 7.3173 100.535 7.35483C100.764 7.32831 100.995 7.39743 101.171 7.54595ZM101.06 8.84485H101.085V8.96485C101.054 8.97093 101.021 8.97093 100.99 8.96485C100.905 8.9689 100.827 8.91875 100.795 8.83985L100.58 8.43485H100.35V8.93485H100.18V7.64985H100.55C100.82 7.64985 100.99 7.78985 100.99 7.98485V8.07985C100.99 8.22583 100.891 8.35336 100.75 8.38985L100.945 8.75485C100.955 8.80964 101.004 8.84829 101.06 8.84485ZM100.82 8.02469V8.09969C100.82 8.23469 100.7 8.30969 100.525 8.31969H100.35V7.81969H100.545C100.7 7.81969 100.82 7.88469 100.82 8.02469Z" fill="#F5F5F5"/>
<path d="M105.725 7.15984H107.46L109.795 15.0548L111.965 7.15984H113.675L110.92 16.4348H108.64L105.725 7.15984Z" fill="#F5F5F5"/>
<path fill-rule="evenodd" clip-rule="evenodd" d="M116.05 13.9948H119.255L120.04 16.4348H121.765L118.765 7.15984H116.5L113.665 16.4348H115.345L116.05 13.9948ZM118.86 12.6598H116.42L117.625 8.3248L118.86 12.6598Z" fill="#F5F5F5"/>
<path d="M130.115 7.15984V16.4348H128.645L128.54 15.5748C127.884 16.2488 126.98 16.6232 126.04 16.6098C124.04 16.6098 123.005 15.2398 123.005 13.4398V7.15984H124.69V13.5048C124.69 14.5648 125.15 15.3198 126.41 15.3198C127.226 15.3322 127.995 14.9411 128.465 14.2748V7.15984H130.115Z" fill="#F5F5F5"/>
<path d="M138.07 15.0848V16.4348H132.635V7.15984H134.305V15.0848H138.07Z" fill="#F5F5F5"/>
<path d="M144.695 8.44484H142.1V16.4448H140.43V8.44484H137.82V7.15984H144.695V8.44484Z" fill="#F5F5F5"/>
<path d="M24.1415 22.9954L3.41469 22.9954C3.24641 22.9954 3.07977 22.9623 2.9243 22.8979C2.76883 22.8334 2.62756 22.7391 2.50857 22.6201C2.38958 22.5011 2.2952 22.3598 2.23081 22.2043C2.16642 22.0488 2.13328 21.8822 2.1333 21.7139L2.1333 4.9927L24.1415 4.9927L24.1415 22.9954Z" fill="#705A01"/>
<path d="M4.13 1H20.8413C21.1811 1 21.5071 1.13501 21.7474 1.37531C21.9877 1.61562 22.1227 1.94155 22.1227 2.2814V18.9889H4.13V1Z" fill="#DBAE03"/>
<path d="M0.139999 21.252L4.13 18.989V1L0.139999 3.432V21.252Z" fill="#EACD5D"/>
<path d="M8.6175 5.0171H11.1443L13.1687 12.8771L15.012 5.0171H17.4832L14.7605 14.7901H11.5076L8.6175 5.0171Z" fill="white"/>
</svg>
